<?xml version="1.0" standalone="no"?>
<!DOCTYPE svg PUBLIC "-//W3C//DTD SVG 20010904//EN"
 "http://www.w3.org/TR/2001/REC-SVG-20010904/DTD/svg10.dtd">
<svg version="1.0" xmlns="http://www.w3.org/2000/svg"
 width="512.000000pt" height="512.000000pt" viewBox="0 0 512.000000 512.000000"
 preserveAspectRatio="xMidYMid meet">
<metadata>
Created by potrace 1.11, written by Peter Selinger 2001-2013
</metadata>
<g transform="translate(0.000000,512.000000) scale(0.100000,-0.100000)"
fill="#000000" stroke="none">
<path d="M2368 5115 c-2 -2 -32 -6 -68 -9 -85 -9 -129 -15 -160 -21 -14 -3
-41 -8 -60 -11 -90 -13 -341 -85 -456 -132 -57 -23 -82 -32 -90 -31 -4 0 -10
-3 -13 -8 -3 -4 -31 -19 -61 -33 -75 -34 -214 -112 -218 -122 -2 -4 -12 -8
-22 -8 -11 0 -23 -6 -27 -13 -4 -7 -25 -21 -45 -32 -20 -10 -35 -23 -32 -27 3
-4 -4 -8 -15 -8 -12 0 -21 -4 -21 -8 0 -4 -34 -32 -75 -61 -41 -30 -75 -58
-75 -62 0 -5 -4 -9 -9 -9 -5 0 -22 -12 -38 -27 -16 -16 -56 -53 -88 -83 -69
-64 -171 -176 -244 -268 -62 -77 -201 -285 -201 -299 0 -6 -4 -13 -8 -15 -17
-7 -177 -346 -187 -398 -2 -8 -4 -16 -5 -17 -2 -2 -3 -6 -5 -10 -1 -5 -7 -21
-13 -36 -7 -15 -14 -42 -17 -60 -4 -17 -11 -37 -17 -44 -6 -7 -8 -13 -4 -13 3
0 2 -10 -3 -23 -11 -28 -51 -218 -57 -272 -3 -22 -7 -50 -9 -62 -27 -124 -27
-479 0 -663 17 -123 26 -173 36 -205 5 -16 11 -46 13 -65 3 -19 14 -62 26 -95
11 -33 21 -62 20 -65 -1 -43 168 -437 208 -482 8 -10 12 -18 7 -18 -4 0 4 -15
19 -34 14 -19 26 -37 26 -40 0 -7 121 -186 140 -208 8 -9 20 -23 25 -30 46
-61 102 -126 170 -196 44 -46 82 -88 83 -93 2 -5 8 -9 13 -9 5 0 25 -15 44
-33 73 -70 173 -148 275 -215 47 -31 87 -60 88 -64 2 -5 12 -8 23 -8 10 0 19
-4 19 -9 0 -8 318 -171 333 -171 3 0 18 -5 34 -11 15 -6 28 -9 28 -7 1 2 13
-5 28 -15 15 -9 27 -15 27 -13 0 3 33 -6 73 -20 78 -27 209 -61 270 -70 43 -7
52 -8 87 -17 114 -28 476 -42 655 -25 39 3 70 7 70 8 0 1 17 4 38 5 52 5 219
38 302 59 118 30 282 88 380 132 22 10 42 18 45 19 18 4 197 100 259 139 22
15 45 26 50 26 5 0 11 3 13 8 2 4 32 27 68 51 36 24 68 49 72 55 4 6 11 11 16
11 5 0 16 7 24 15 9 8 33 29 54 45 51 40 151 131 194 176 66 70 125 135 155
173 17 21 40 50 53 65 12 14 39 51 59 81 20 30 40 57 45 58 4 2 8 8 8 13 0 5
16 34 36 64 19 31 49 81 66 113 17 31 41 75 53 97 41 75 149 352 161 414 3 14
7 28 10 33 5 7 9 22 20 77 3 12 11 51 19 86 14 59 19 87 31 180 3 22 9 67 13
99 11 77 10 401 0 491 -13 116 -19 162 -25 186 -3 13 -7 39 -10 58 -2 18 -9
41 -14 51 -5 9 -7 19 -5 22 3 2 -4 34 -14 71 -11 37 -17 67 -13 67 3 0 1 5 -6
12 -7 7 -12 22 -12 33 0 12 -3 25 -7 29 -5 4 -8 11 -8 14 -1 11 -26 85 -40
117 -7 17 -29 69 -50 117 -20 48 -54 120 -76 160 -22 40 -42 81 -45 91 -4 9
-10 17 -15 17 -5 0 -9 9 -9 19 0 11 -3 21 -7 23 -5 2 -38 48 -75 103 -36 55
-76 110 -87 122 -12 12 -21 26 -21 30 0 5 -8 16 -17 24 -10 9 -38 40 -63 69
-115 134 -358 354 -457 412 -18 11 -33 23 -33 27 0 4 -12 12 -27 18 -27 12
-63 33 -73 43 -11 11 -86 53 -195 108 -38 20 -157 75 -200 93 -29 12 -197 70
-215 74 -8 2 -60 15 -115 29 -55 14 -120 28 -145 31 -24 4 -47 8 -50 10 -7 4
-97 16 -157 20 -23 1 -45 5 -50 7 -8 5 -400 7 -405 3z"/>
<path d="M4520 610 c-64 -22 -97 -47 -126 -97 -21 -35 -26 -56 -26 -113 0 -86
27 -141 92 -185 41 -27 52 -30 125 -30 71 0 84 3 119 28 108 75 131 198 60
311 -50 78 -156 116 -244 86z m97 -57 c8 9 54 -17 83 -48 22 -24 25 -35 25
-107 0 -64 -3 -82 -17 -92 -10 -7 -15 -16 -12 -19 3 -3 -5 -12 -18 -21 -26
-17 -104 -37 -113 -28 -3 3 -15 7 -27 9 -89 14 -135 152 -81 244 15 25 93 79
93 63 0 -3 8 -1 17 5 12 6 22 6 31 -1 7 -6 15 -8 19 -5z"/>
<path d="M4499 514 c0 -5 -1 -56 -2 -114 l-2 -106 31 0 c30 0 31 2 30 40 -1
54 16 55 41 3 18 -37 25 -43 49 -41 39 2 39 2 21 22 -10 10 -15 21 -12 24 3 3
-1 11 -10 18 -19 16 -19 30 -1 30 30 0 39 81 12 108 -16 16 -155 30 -157 16z
m110 -47 c15 -19 -9 -50 -34 -46 -17 4 -23 24 -16 54 2 11 39 4 50 -8z"/>
</g>
</svg>
